# Blender v2.83.0 OBJ File: 'obstacle.blend'
# www.blender.org
mtllib obstacle.mtl
o Cylinder.001_Cylinder.009
v 0.000000 -1.442597 -0.820000
v 0.000000 -1.212597 -0.820000
v 0.159974 -1.442597 -0.804244
v 0.159974 -1.212597 -0.804244
v 0.313800 -1.442597 -0.757581
v 0.313800 -1.212597 -0.757581
v 0.455568 -1.442597 -0.681805
v 0.455568 -1.212597 -0.681805
v 0.579828 -1.442597 -0.579828
v 0.579828 -1.212597 -0.579828
v 0.681805 -1.442597 -0.455568
v 0.681805 -1.212597 -0.455568
v 0.757581 -1.442597 -0.313800
v 0.757581 -1.212597 -0.313800
v 0.804244 -1.442597 -0.159974
v 0.804244 -1.212597 -0.159974
v 0.681805 -1.442597 0.455568
v 0.681805 -1.212597 0.455568
v 0.579828 -1.442597 0.579828
v 0.579828 -1.212597 0.579828
v 0.455568 -1.442597 0.681805
v 0.455568 -1.212597 0.681805
v 0.313800 -1.442597 0.757581
v 0.313800 -1.212597 0.757581
v 0.159974 -1.442597 0.804244
v 0.159974 -1.212597 0.804244
v -0.000000 -1.442597 0.820000
v -0.000000 -1.212597 0.820000
v -0.159974 -1.442597 0.804244
v -0.159974 -1.212597 0.804244
v -0.313801 -1.442597 0.757581
v -0.313801 -1.212597 0.757581
v -0.455568 -1.442597 0.681805
v -0.455568 -1.212597 0.681805
v -0.579828 -1.442597 0.579827
v -0.579828 -1.212597 0.579827
v -0.681805 -1.442597 0.455567
v -0.681805 -1.212597 0.455567
v -0.757581 -1.442597 0.313800
v -0.757581 -1.212597 0.313800
v -0.804244 -1.442597 0.159973
v -0.804244 -1.212597 0.159973
v -0.820000 -1.442597 -0.000001
v -0.820000 -1.212597 -0.000001
v -0.804244 -1.442597 -0.159975
v -0.804244 -1.212597 -0.159975
v -0.757581 -1.442597 -0.313801
v -0.757581 -1.212597 -0.313801
v -0.681805 -1.442597 -0.455568
v -0.681805 -1.212597 -0.455568
v -0.579827 -1.442597 -0.579828
v -0.579827 -1.212597 -0.579828
v -0.455567 -1.442597 -0.681806
v -0.455567 -1.212597 -0.681806
v -0.313799 -1.442597 -0.757582
v -0.313799 -1.212597 -0.757582
v -0.159973 -1.442597 -0.804244
v -0.159973 -1.212597 -0.804244
v 0.000000 -1.401112 -0.524191
v 0.102265 -1.401112 -0.514119
v 0.102265 -1.254082 -0.514119
v 0.000000 -1.254082 -0.524191
v 0.200599 -1.401112 -0.484289
v 0.200599 -1.254082 -0.484289
v 0.291225 -1.401112 -0.435849
v 0.291225 -1.254082 -0.435849
v 0.370659 -1.401112 -0.370659
v 0.370659 -1.254082 -0.370659
v 0.435849 -1.401112 -0.291225
v 0.435849 -1.254082 -0.291225
v 0.484289 -1.401112 -0.200599
v 0.484289 -1.254082 -0.200599
v 0.514119 -1.401112 -0.102265
v 0.514119 -1.254082 -0.102265
v 0.435849 -1.401112 0.291225
v 0.435849 -1.254082 0.291225
v 0.370659 -1.401112 0.370659
v 0.370659 -1.254082 0.370659
v 0.291225 -1.401112 0.435849
v 0.291225 -1.254082 0.435849
v 0.200599 -1.401112 0.484289
v 0.200599 -1.254082 0.484289
v 0.102264 -1.401112 0.514119
v 0.102264 -1.254082 0.514119
v -0.000000 -1.401112 0.524191
v -0.000000 -1.254082 0.524191
v -0.102265 -1.401112 0.514119
v -0.102265 -1.254082 0.514119
v -0.200599 -1.401112 0.484289
v -0.200599 -1.254082 0.484289
v -0.291225 -1.401112 0.435849
v -0.291225 -1.254082 0.435849
v -0.370659 -1.401112 0.370659
v -0.370659 -1.254082 0.370659
v -0.435849 -1.401112 0.291224
v -0.435849 -1.254082 0.291224
v -0.484289 -1.401112 0.200599
v -0.484289 -1.254082 0.200599
v -0.514119 -1.401112 0.102264
v -0.514119 -1.254082 0.102264
v -0.524191 -1.401112 -0.000001
v -0.524191 -1.254082 -0.000001
v -0.514119 -1.401112 -0.102265
v -0.514119 -1.254082 -0.102265
v -0.484289 -1.401112 -0.200600
v -0.484289 -1.254082 -0.200600
v -0.435848 -1.401112 -0.291225
v -0.435848 -1.254082 -0.291225
v -0.370658 -1.401112 -0.370659
v -0.370658 -1.254082 -0.370659
v -0.291224 -1.401112 -0.435849
v -0.291224 -1.254082 -0.435849
v -0.200598 -1.401112 -0.484290
v -0.200598 -1.254082 -0.484290
v -0.102264 -1.401112 -0.514119
v -0.102264 -1.254082 -0.514119
vt 1.000000 0.500000
vt 1.000000 1.000000
vt 0.968750 1.000000
vt 0.968750 0.500000
vt 0.937500 1.000000
vt 0.937500 0.500000
vt 0.906250 1.000000
vt 0.906250 0.500000
vt 0.875000 1.000000
vt 0.875000 0.500000
vt 0.843750 1.000000
vt 0.843750 0.500000
vt 0.812500 1.000000
vt 0.812500 0.500000
vt 0.781250 1.000000
vt 0.781250 0.500000
vt 0.656250 0.500000
vt 0.656250 1.000000
vt 0.625000 1.000000
vt 0.625000 0.500000
vt 0.593750 1.000000
vt 0.593750 0.500000
vt 0.562500 1.000000
vt 0.562500 0.500000
vt 0.531250 1.000000
vt 0.531250 0.500000
vt 0.500000 1.000000
vt 0.500000 0.500000
vt 0.468750 1.000000
vt 0.468750 0.500000
vt 0.437500 1.000000
vt 0.437500 0.500000
vt 0.406250 1.000000
vt 0.406250 0.500000
vt 0.375000 1.000000
vt 0.375000 0.500000
vt 0.343750 1.000000
vt 0.343750 0.500000
vt 0.312500 1.000000
vt 0.312500 0.500000
vt 0.281250 1.000000
vt 0.281250 0.500000
vt 0.250000 1.000000
vt 0.250000 0.500000
vt 0.218750 1.000000
vt 0.218750 0.500000
vt 0.187500 1.000000
vt 0.187500 0.500000
vt 0.156250 1.000000
vt 0.156250 0.500000
vt 0.125000 1.000000
vt 0.125000 0.500000
vt 0.093750 1.000000
vt 0.093750 0.500000
vt 0.062500 1.000000
vt 0.062500 0.500000
vt 0.000000 1.000000
vt 0.031250 1.000000
vt 0.031250 1.000000
vt 0.000000 1.000000
vt 0.031250 0.500000
vt 0.000000 0.500000
vt 0.812500 0.500000
vt 0.843750 0.500000
vt 0.062500 1.000000
vt 0.062500 0.500000
vt 0.031250 0.500000
vt 0.000000 0.500000
vt 0.531250 0.500000
vt 0.562500 0.500000
vt 0.843750 1.000000
vt 0.812500 1.000000
vt 0.250000 0.500000
vt 0.281250 0.500000
vt 0.562500 1.000000
vt 0.531250 1.000000
vt 0.281250 1.000000
vt 0.250000 1.000000
vt 0.781250 0.500000
vt 0.500000 0.500000
vt 0.781250 1.000000
vt 0.218750 0.500000
vt 0.500000 1.000000
vt 0.218750 1.000000
vt 0.468750 0.500000
vt 0.187500 0.500000
vt 0.468750 1.000000
vt 0.187500 1.000000
vt 0.437500 0.500000
vt 0.968750 0.500000
vt 1.000000 0.500000
vt 0.156250 0.500000
vt 0.437500 1.000000
vt 1.000000 1.000000
vt 0.968750 1.000000
vt 0.156250 1.000000
vt 0.406250 0.500000
vt 0.125000 0.500000
vt 0.406250 1.000000
vt 0.937500 0.500000
vt 0.125000 1.000000
vt 0.937500 1.000000
vt 0.375000 0.500000
vt 0.093750 0.500000
vt 0.375000 1.000000
vt 0.906250 0.500000
vt 0.093750 1.000000
vt 0.625000 0.500000
vt 0.656250 0.500000
vt 0.906250 1.000000
vt 0.343750 0.500000
vt 0.656250 1.000000
vt 0.625000 1.000000
vt 0.343750 1.000000
vt 0.875000 0.500000
vt 0.593750 0.500000
vt 0.875000 1.000000
vt 0.312500 0.500000
vt 0.593750 1.000000
vt 0.312500 1.000000
vn 0.0980 0.0000 -0.9952
vn 0.2903 0.0000 -0.9569
vn 0.4714 0.0000 -0.8819
vn 0.6344 0.0000 -0.7730
vn 0.7730 0.0000 -0.6344
vn 0.8819 0.0000 -0.4714
vn 0.9569 0.0000 -0.2903
vn 0.7730 0.0000 0.6344
vn 0.6344 0.0000 0.7730
vn 0.4714 0.0000 0.8819
vn 0.2903 0.0000 0.9569
vn 0.0980 0.0000 0.9952
vn -0.0980 0.0000 0.9952
vn -0.2903 0.0000 0.9569
vn -0.4714 0.0000 0.8819
vn -0.6344 0.0000 0.7730
vn -0.7730 0.0000 0.6344
vn -0.8819 0.0000 0.4714
vn -0.9569 0.0000 0.2903
vn -0.9952 0.0000 0.0980
vn -0.9952 0.0000 -0.0980
vn -0.9569 0.0000 -0.2903
vn -0.8819 0.0000 -0.4714
vn -0.7730 0.0000 -0.6344
vn -0.6344 0.0000 -0.7730
vn -0.4714 0.0000 -0.8819
vn 0.0137 0.9902 0.1389
vn -0.2903 0.0000 -0.9569
vn -0.0980 0.0000 -0.9952
vn -0.1231 -0.9902 0.0658
vn -0.0405 -0.9902 -0.1335
vn -0.1231 0.9902 0.0658
vn 0.1389 -0.9902 -0.0137
vn -0.0405 0.9902 -0.1335
vn 0.1389 0.9902 -0.0137
vn -0.1335 -0.9902 0.0405
vn -0.0137 -0.9902 -0.1389
vn -0.1335 0.9902 0.0405
vn 0.1389 -0.9902 0.0137
vn -0.0137 0.9902 -0.1389
vn 0.1389 0.9902 0.0137
vn 0.0137 -0.9902 -0.1389
vn 0.1335 -0.9902 0.0405
vn 0.0137 0.9902 -0.1389
vn 0.1335 0.9902 0.0405
vn 0.0405 -0.9902 -0.1335
vn -0.0137 -0.9902 0.1389
vn 0.1231 -0.9902 0.0658
vn 0.0405 0.9902 -0.1335
vn -0.0137 0.9902 0.1389
vn 0.1231 0.9902 0.0658
vn 0.0658 -0.9902 -0.1231
vn 0.1079 -0.9902 0.0885
vn 0.0658 0.9902 -0.1231
vn -0.0405 -0.9902 0.1335
vn 0.1079 0.9902 0.0885
vn -0.0405 0.9902 0.1335
vn 0.0885 -0.9902 -0.1079
vn 0.0885 -0.9902 0.1079
vn 0.0885 0.9902 -0.1079
vn -0.0658 -0.9902 0.1231
vn 0.0885 0.9902 0.1079
vn -0.1079 -0.9902 -0.0885
vn -0.0658 0.9902 0.1231
vn 0.1079 -0.9902 -0.0885
vn -0.1079 0.9902 -0.0885
vn 0.0658 -0.9902 0.1231
vn 0.1079 0.9902 -0.0885
vn -0.0885 -0.9902 0.1079
vn 0.0658 0.9902 0.1231
vn -0.0885 -0.9902 -0.1079
vn -0.0885 0.9902 0.1079
vn 0.1231 -0.9902 -0.0658
vn -0.0885 0.9902 -0.1079
vn 0.0405 -0.9902 0.1335
vn 0.1231 0.9902 -0.0658
vn -0.1079 -0.9902 0.0885
vn 0.0405 0.9902 0.1335
vn -0.0658 -0.9902 -0.1231
vn -0.1079 0.9902 0.0885
vn 0.1335 -0.9902 -0.0405
vn -0.0658 0.9902 -0.1231
vn 0.0137 -0.9902 0.1389
vn 0.1335 0.9902 -0.0405
vn 0.8819 0.0000 0.4714
vn 0.9569 0.0000 0.2903
vn 0.9952 0.0000 0.0980
vn 0.9952 0.0000 -0.0980
vn 0.1951 0.0000 0.9808
vn 0.5556 0.0000 -0.8315
usemtl None
s off
f 1/1/1 2/2/1 4/3/1 3/4/1
f 3/4/2 4/3/2 6/5/2 5/6/2
f 5/6/3 6/5/3 8/7/3 7/8/3
f 7/8/4 8/7/4 10/9/4 9/10/4
f 9/10/5 10/9/5 12/11/5 11/12/5
f 11/12/6 12/11/6 14/13/6 13/14/6
f 13/14/7 14/13/7 16/15/7 15/16/7
f 17/17/8 18/18/8 20/19/8 19/20/8
f 19/20/9 20/19/9 22/21/9 21/22/9
f 21/22/10 22/21/10 24/23/10 23/24/10
f 23/24/11 24/23/11 26/25/11 25/26/11
f 25/26/12 26/25/12 28/27/12 27/28/12
f 27/28/13 28/27/13 30/29/13 29/30/13
f 29/30/14 30/29/14 32/31/14 31/32/14
f 31/32/15 32/31/15 34/33/15 33/34/15
f 33/34/16 34/33/16 36/35/16 35/36/16
f 35/36/17 36/35/17 38/37/17 37/38/17
f 37/38/18 38/37/18 40/39/18 39/40/18
f 39/40/19 40/39/19 42/41/19 41/42/19
f 41/42/20 42/41/20 44/43/20 43/44/20
f 43/44/21 44/43/21 46/45/21 45/46/21
f 45/46/22 46/45/22 48/47/22 47/48/22
f 47/48/23 48/47/23 50/49/23 49/50/23
f 49/50/24 50/49/24 52/51/24 51/52/24
f 51/52/25 52/51/25 54/53/25 53/54/25
f 53/54/26 54/53/26 56/55/26 55/56/26
f 2/57/27 58/58/27 116/59/27 62/60/27
f 55/56/28 56/55/28 58/58/28 57/61/28
f 57/61/29 58/58/29 2/57/29 1/62/29
f 11/12/30 13/14/30 71/63/30 69/64/30
f 116/59/11 114/65/11 113/66/11 115/67/11
f 62/60/12 116/59/12 115/67/12 59/68/12
f 23/24/31 25/26/31 83/69/31 81/70/31
f 14/13/32 12/11/32 70/71/32 72/72/32
f 41/42/33 43/44/33 101/73/33 99/74/33
f 26/25/34 24/23/34 82/75/34 84/76/34
f 44/43/35 42/41/35 100/77/35 102/78/35
f 13/14/36 15/16/36 73/79/36 71/63/36
f 25/26/37 27/28/37 85/80/37 83/69/37
f 16/15/38 14/13/38 72/72/38 74/81/38
f 43/44/39 45/46/39 103/82/39 101/73/39
f 28/27/40 26/25/40 84/76/40 86/83/40
f 46/45/41 44/43/41 102/78/41 104/84/41
f 27/28/42 29/30/42 87/85/42 85/80/42
f 45/46/43 47/48/43 105/86/43 103/82/43
f 30/29/44 28/27/44 86/83/44 88/87/44
f 48/47/45 46/45/45 104/84/45 106/88/45
f 29/30/46 31/32/46 89/89/46 87/85/46
f 1/1/47 3/4/47 60/90/47 59/91/47
f 47/48/48 49/50/48 107/92/48 105/86/48
f 32/31/49 30/29/49 88/87/49 90/93/49
f 4/3/50 2/2/50 62/94/50 61/95/50
f 50/49/51 48/47/51 106/88/51 108/96/51
f 31/32/52 33/34/52 91/97/52 89/89/52
f 49/50/53 51/52/53 109/98/53 107/92/53
f 34/33/54 32/31/54 90/93/54 92/99/54
f 3/4/55 5/6/55 63/100/55 60/90/55
f 52/51/56 50/49/56 108/96/56 110/101/56
f 6/5/57 4/3/57 61/95/57 64/102/57
f 33/34/58 35/36/58 93/103/58 91/97/58
f 51/52/59 53/54/59 111/104/59 109/98/59
f 36/35/60 34/33/60 92/99/60 94/105/60
f 5/6/61 7/8/61 65/106/61 63/100/61
f 54/53/62 52/51/62 110/101/62 112/107/62
f 17/17/63 19/20/63 77/108/63 75/109/63
f 8/7/64 6/5/64 64/102/64 66/110/64
f 35/36/65 37/38/65 95/111/65 93/103/65
f 20/19/66 18/18/66 76/112/66 78/113/66
f 53/54/67 55/56/67 113/66/67 111/104/67
f 38/37/68 36/35/68 94/105/68 96/114/68
f 7/8/69 9/10/69 67/115/69 65/106/69
f 56/55/70 54/53/70 112/107/70 114/65/70
f 19/20/71 21/22/71 79/116/71 77/108/71
f 10/9/72 8/7/72 66/110/72 68/117/72
f 37/38/73 39/40/73 97/118/73 95/111/73
f 22/21/74 20/19/74 78/113/74 80/119/74
f 55/56/75 57/61/75 115/67/75 113/66/75
f 40/39/76 38/37/76 96/114/76 98/120/76
f 9/10/77 11/12/77 69/64/77 67/115/77
f 58/58/78 56/55/78 114/65/78 116/59/78
f 21/22/79 23/24/79 81/70/79 79/116/79
f 12/11/80 10/9/80 68/117/80 70/71/80
f 39/40/81 41/42/81 99/74/81 97/118/81
f 24/23/82 22/21/82 80/119/82 82/75/82
f 57/61/83 1/62/83 59/68/83 115/67/83
f 42/41/84 40/39/84 98/120/84 100/77/84
f 114/65/10 112/107/10 111/104/10 113/66/10
f 112/107/9 110/101/9 109/98/9 111/104/9
f 110/101/8 108/96/8 107/92/8 109/98/8
f 108/96/85 106/88/85 105/86/85 107/92/85
f 106/88/86 104/84/86 103/82/86 105/86/86
f 104/84/87 102/78/87 101/73/87 103/82/87
f 102/78/88 100/77/88 99/74/88 101/73/88
f 100/77/7 98/120/7 97/118/7 99/74/7
f 98/120/6 96/114/6 95/111/6 97/118/6
f 96/114/5 94/105/5 93/103/5 95/111/5
f 94/105/4 92/99/4 91/97/4 93/103/4
f 92/99/3 90/93/3 89/89/3 91/97/3
f 90/93/2 88/87/2 87/85/2 89/89/2
f 88/87/1 86/83/1 85/80/1 87/85/1
f 86/83/29 84/76/29 83/69/29 85/80/29
f 84/76/28 82/75/28 81/70/28 83/69/28
f 82/75/26 80/119/26 79/116/26 81/70/26
f 80/119/25 78/113/25 77/108/25 79/116/25
f 78/113/24 76/112/24 75/109/24 77/108/24
f 15/16/89 16/15/89 74/81/89 73/79/89
f 74/81/19 72/72/19 71/63/19 73/79/19
f 72/72/18 70/71/18 69/64/18 71/63/18
f 70/71/17 68/117/17 67/115/17 69/64/17
f 68/117/16 66/110/16 65/106/16 67/115/16
f 66/110/15 64/102/15 63/100/15 65/106/15
f 64/102/14 61/95/14 60/90/14 63/100/14
f 61/95/13 62/94/13 59/91/13 60/90/13
f 17/17/90 75/109/90 76/112/90 18/18/90
